PathFileType	4	(X/Y/Z)	Patient4_TMGait_0pt6_01_left_32.trc.trc
DataRate	CameraRate	NumFrames	NumMarkers	Units	OrigDataRate	OrigDataStartFrame	OrigNumFrames
78.212290502793	78.212290502793	4	33	mm	78.212290502793	106	       141
Frame#	Time	Sacral			L.Shoulder			Chest			R.Shoulder			Neck			R.ASIS			L.ASIS			R.Thigh.Superior			R.Thigh.Lateral			R.Thigh.Inferior			R.Patella			L.Thigh.Superior			L.Thigh.Lateral			L.Thigh.Inferior			L.Patella			L.Shank.Superior			L.Shank.Lateral			L.Shank.Inferior			R.Shank.Superior			R.Shank.Lateral			R.Shank.Inferior			R.Heel			R.Midfoot.Superior			R.Midfoot.Lateral			R.Toe			L.Heel			L.Midfoot.Lateral			L.Midfoot.Superior			L.Toe			L.Elbow			L.Wrist			R.Elbow			R.Wrist			
		X1	Y1	Z1	X2	Y2	Z2	X3	Y3	Z3	X4	Y4	Z4	X5	Y5	Z5	X6	Y6	Z6	X7	Y7	Z7	X8	Y8	Z8	X9	Y9	Z9	X10	Y10	Z10	X11	Y11	Z11	X12	Y12	Z12	X13	Y13	Z13	X14	Y14	Z14	X15	Y15	Z15	X16	Y16	Z16	X17	Y17	Z17	X18	Y18	Z18	X19	Y19	Z19	X20	Y20	Z20	X21	Y21	Z21	X22	Y22	Z22	X23	Y23	Z23	X24	Y24	Z24	X25	Y25	Z25	X26	Y26	Z26	X27	Y27	Z27	X28	Y28	Z28	X29	Y29	Z29	X30	Y30	Z30	X31	Y31	Z31	X32	Y32	Z32	X33	Y33	Z33	

106	40.222500000000	748.033583624085	1009.832056591195	540.888449476437	888.392411583502	1439.374380790279	348.090853707373	1014.398490294874	1371.962115747383	492.295399995173	955.254103129603	1441.637090559895	676.704263392668	892.520973126984	1498.433243099945	502.656365834099	982.779087868641	947.836069532859	635.975687861305	944.505413940766	965.770242568138	363.837234988659	996.907616272819	738.297973428271	605.040881642483	903.866303557657	636.098142603197	666.309107319684	969.800371558718	579.641033841390	584.293272984189	960.336826969614	495.600870260855	588.073137908669	1032.501573632462	790.148192314323	387.170850892746	990.010391921497	662.940382808151	305.562923376874	1098.960036513067	606.252711424861	359.301876408793	1124.540621546085	530.366398530863	347.059137683032	1090.712647798345	454.637874193848	340.329684312717	987.864283201817	347.180437356936	301.044491844662	1051.835747729479	229.030676390749	347.517760322871	934.604083720617	408.442131889098	590.234540663068	864.990017409112	299.405479873516	644.392231760786	914.483918866026	209.737320615267	577.220348360621	787.329369094461	42.180184520779	533.012867997289	958.237772709887	97.559801327426	573.021768319095	869.573801731144	36.274626752438	608.982094476058	1077.621701651731	45.370689407961	600.849421543916	931.485825836531	71.235890956237	398.398256294858	993.386862409278	66.763850193496	309.052717791427	1080.105340051556	128.220414224550	321.196919685747	1200.138715267763	75.756915643943	275.951118671461	801.548446119449	1091.454742597387	246.137073220476	809.342264484740	832.209307588177	238.864437505058	1047.630090435421	1108.069250018079	793.315090784093	1289.606953342903	1074.494104314087	719.466841408905	
107	40.235285714286	747.515807901506	1009.812515628659	541.440472216607	887.647587152198	1439.609121242985	348.865047367095	1013.999482663493	1371.626805780354	492.532452881339	955.399521908543	1440.812969598487	677.227185264445	892.059317329793	1498.117922103217	503.644057428304	982.296256422301	947.536536212692	636.032730681398	943.581847519145	965.014838981467	363.810502519630	994.061674903134	737.550718231094	605.915998149874	899.299662286504	636.223383707342	666.964859133142	964.705992632614	579.090793013522	585.365706694561	954.257584777293	495.237694310948	589.075235204959	1029.726092515000	788.276488389288	386.724705614235	986.268007445497	661.227931649028	305.258903496472	1095.022215494103	604.373494310880	359.350209006500	1121.666765410508	531.136615261241	347.558778285951	1092.316826197547	456.090134769827	340.379548693043	997.757069275215	342.056686266465	299.473572934657	1069.621471576827	228.257325161798	345.889128105666	927.993461795982	408.426806880416	590.999660755237	857.620158667923	299.630629101635	644.846241596674	907.080551222681	209.781751917687	577.721723400454	779.607399790768	42.266098154311	533.044409095624	950.607645009101	97.550937607938	573.142451323800	861.867813466728	36.283172309596	609.002122697815	1069.904678695435	45.231388951304	600.927895755332	960.214582549496	62.340712659958	394.831348998475	1023.571301253552	62.014326986235	306.346444336784	1105.778574470132	129.169721062507	319.463839926196	1229.680454836592	84.737195392633	276.073100718978	794.340713324479	1093.840557030815	246.795821057945	797.958583083067	834.496664945762	240.281605671525	1054.374036193267	1109.109050007750	791.391728410413	1296.475746924876	1093.562864563076	714.194244261991	
108	40.248071428571	746.996454535794	1009.754660780900	541.760536639964	886.983993866066	1439.779297538947	349.471607783574	1013.617987272935	1371.246001305462	492.674609643361	955.454562088681	1439.960986869243	677.609173723842	891.586193725338	1497.760782693445	504.454796636126	981.803311958869	947.173348262799	635.987037415434	942.760481395810	964.187631976759	363.673720815779	991.419226844015	736.790375343811	606.736300920589	894.983954494065	636.314955608404	667.472867200375	959.884891851289	578.516240970709	586.254668737824	948.501670588223	494.846063896955	589.866361106921	1026.815413632018	786.023387955369	386.178765192938	982.137703374376	659.202106913616	304.942405763025	1090.748232802184	602.070939810176	359.363599705784	1118.316061960999	531.494759291767	348.287137276127	1093.233706728343	457.421554323119	340.640422123404	1007.062641165643	337.588253950354	298.006612836821	1086.132007376503	228.504548250939	344.523305011020	921.666178038842	408.366992725637	591.611232262580	850.519093327805	299.880945658053	645.223107245964	899.815532017541	209.803766692065	578.138709462575	771.889851637476	42.373055810088	533.088766793327	943.000768153362	97.557330077603	573.286634403669	854.166331726647	36.296253600893	609.025041750422	1062.197161449889	45.075244835914	601.003753340518	987.484037562425	55.644435471069	391.382259062882	1052.316777662573	59.061656784033	303.954480798824	1129.913461141400	131.353753454399	318.145913413799	1257.162576857718	94.557492036126	277.087593915199	787.697232119996	1096.119987381489	247.472754171368	787.408283427818	836.713931094945	241.776716004301	1060.778559952842	1110.127985756552	789.126748686766	1301.804058922021	1112.179626640595	709.011148654507	
109	40.260857142857	746.470952594134	1009.683522304445	541.858276030581	886.390101084035	1439.885995787954	349.895643913878	1013.254361514405	1370.842027833581	492.707455456210	955.438554546859	1439.140612350348	677.830611194791	891.107319949999	1497.385411589982	505.065953830312	981.296660298117	946.762822064118	635.834003481128	942.023987210009	963.352267114971	363.428768273242	988.967684217508	736.031642158359	607.412824996111	890.969461747350	636.374816841181	667.805743927236	955.362164642218	577.921837645262	586.906677357261	943.102973001271	494.424711898364	590.416175887389	1023.891907227071	783.586869433733	385.574337152484	977.819638588666	657.019426320396	304.651462720147	1086.373622908870	599.561456937666	359.326548452775	1114.722048392744	531.577412384438	349.177154622184	1093.586979468390	458.664050351263	341.044615108920	1015.572316690830	333.850405801584	296.777527958028	1101.110513695601	229.635760996580	343.442708958587	915.650078653110	408.255378532349	592.045663154088	843.722109401227	300.157597932947	645.511338896423	892.707658921185	209.799982839486	578.458402415498	764.178630697925	42.503174164931	533.148745029936	935.418374078374	97.578759811352	573.454898818723	846.470283889964	36.315557265144	609.051367183225	1054.502037964288	44.900574328792	601.077548435678	1012.751482180886	51.017629387485	388.333299963821	1078.963426337460	57.718540060753	302.013582367258	1152.062917714648	134.519779590606	317.213475878215	1282.109247962375	104.764365479865	278.667283556147	781.696028129336	1098.230318480763	248.154206035045	777.716968528018	838.794690736612	243.320853437267	1066.799384394790	1111.164438285055	786.565661326931	1305.673519409593	1130.142594496783	703.974869931181	
